# xmcd CD database file
#
# Track frame offsets:
#	150
#	12162
#	24537
#	35587
#	45287
#	58862
#	70412
#	88387
#	100337
#	114452
#	127470
#	141800
#	155410
#	171712
#	181272
#	193062
#	206642
#	215925
#	229012
#	244997
#
# Disc length: 3460 seconds
#
# Revision: 0
# Processed by: cddbd v1.4PL0 Copyright (c) Steve Scherf et al.
# Submitted via: CDex 1.50
#
DISCID=370d8214
DTITLE=Various Artist - Country Gals and Country Gentleman Disc 1
DYEAR=1900
DGENRE=Country
TTITLE0=Hank Williams - Take These Chains From My Heart
TTITLE1=Patsy Cline - Crazy
TTITLE2=Conway Twitty - Hello Darlin'
TTITLE3=Loretta Lynn - Don't Come Home A Drinkin'
TTITLE4=George Hamilton IV - Abilene
TTITLE5=Kitty Wells - It Wasn't God Who Made Honky Tonk Angels
TTITLE6=Frankie Laine - You Gave Me a Mountain
TTITLE7=Brenda Lee - Break It To Me Gently
TTITLE8=Marty Robbins - Walking Piece of Heaven
TTITLE9=Lynn Anderson - Rose Garden
TTITLE10=Ferlin Husky - Wings of a Dove
TTITLE11=Margo Smith - It Only Hurts For A Little While
TTITLE12=Bill Anderson - The Corner of My Life
TTITLE13=Gail Davies - Waiting Here For You
TTITLE14=Tennessee Ernie Ford - Sixteen Tons
TTITLE15=Loretta Lynn - Coal Miner's Daughter
TTITLE16=Porter Wagoner - Sorrow On The Rocks
TTITLE17=Kitty Wells - Making Believe
TTITLE18=Roger Miller - River In The Rain
TTITLE19=Jeanie C. Riley - Harper Valley P.T.A.
EXTD=
EXTT0=
EXTT1=
EXTT2=
EXTT3=
EXTT4=
EXTT5=
EXTT6=
EXTT7=
EXTT8=
EXTT9=
EXTT10=
EXTT11=
EXTT12=
EXTT13=
EXTT14=
EXTT15=
EXTT16=
EXTT17=
EXTT18=
EXTT19=
PLAYORDER=
